<svg width="272" height="72" viewBox="0 0 272 72" fill="none" xmlns="http://www.w3.org/2000/svg" role="img" aria-label="Mitynex">
  <defs>
    <linearGradient id="shellA" x1="9" y1="10" x2="68" y2="60" gradientUnits="userSpaceOnUse">
      <stop stop-color="#FFFFFF"/>
      <stop offset="0.45" stop-color="#2A8CFF"/>
      <stop offset="1" stop-color="#12D6FF"/>
    </linearGradient>
    <linearGradient id="textA" x1="83" y1="20" x2="242" y2="48" gradientUnits="userSpaceOnUse">
      <stop stop-color="#FFFFFF"/>
      <stop offset="0.58" stop-color="#FFFFFF"/>
      <stop offset="1" stop-color="#2A8CFF"/>
    </linearGradient>
    <filter id="glow" x="-20%" y="-30%" width="140%" height="160%" color-interpolation-filters="sRGB">
      <feDropShadow dx="0" dy="0" stdDeviation="3" flood-color="#12D6FF" flood-opacity="0.42"/>
    </filter>
  </defs>

  <g filter="url(#glow)">
    <path d="M62.5 15.9C50.2 8.4 28.3 13 13.1 32.4C27.4 19.8 43.8 15.4 58.4 21.9C60.3 22.8 62.4 20.9 62.5 15.9Z" fill="url(#shellA)" opacity="0.95"/>
    <path d="M67.2 27.9C50.7 22.2 28.4 27.8 8.3 46.9C29.7 37.1 46.2 35.8 63.4 39.7C66.1 40.3 68.4 34.7 67.2 27.9Z" fill="url(#shellA)" opacity="0.86"/>
    <path d="M64 45.1C47.1 42.3 29.6 44.9 12.4 54.9C28.8 62.8 51.1 60.6 68.1 47.4C67 46.4 65.7 45.5 64 45.1Z" fill="url(#shellA)"/>
    <path d="M16.7 49.7C27.4 41.3 42.1 36.2 59.7 37.9" stroke="#F5FAFF" stroke-width="2" stroke-linecap="round" opacity="0.88"/>
    <path d="M18.4 34.5C29.7 22.9 43.4 18.7 56.3 22" stroke="#F5FAFF" stroke-width="1.8" stroke-linecap="round" opacity="0.78"/>
  </g>

  <text x="82" y="45" fill="url(#textA)" font-family="Inter, Manrope, Segoe UI, sans-serif" font-size="38" font-weight="800" letter-spacing="-1.6">Mitynex</text>
  <text x="84" y="62" fill="#A9B8CF" font-family="Inter, Manrope, Segoe UI, sans-serif" font-size="8.6" font-weight="600" letter-spacing=".02em">Plataforma integral para gestion acuicola</text>
</svg>
